<svg width="29" height="29" viewBox="0 0 29 29" fill="none" xmlns="http://www.w3.org/2000/svg">
<g id="email" clip-path="url(#clip0_1_61)">
<g id="Group">
<g id="Group_2">
<path id="Vector" d="M18.9003 15.4277L16.5553 17.7807C15.6043 18.735 13.9311 18.7556 12.9596 17.7807L10.6144 15.4277L2.19165 23.8778C2.50517 24.0228 2.85085 24.1093 3.21835 24.1093H26.2965C26.664 24.1093 27.0096 24.0229 27.323 23.8779L18.9003 15.4277Z" fill="#64646A"/>
</g>
</g>
<g id="Group_3">
<g id="Group_4">
<path id="Vector_2" d="M26.2964 4.42188H3.21824C2.85074 4.42188 2.50506 4.50839 2.19165 4.65337L11.192 13.6835C11.1926 13.6841 11.1933 13.6842 11.1939 13.6848C11.1945 13.6854 11.1946 13.6863 11.1946 13.6863L14.1211 16.6224C14.4319 16.9333 15.0828 16.9333 15.3937 16.6224L18.3195 13.6868C18.3195 13.6868 18.3203 13.6854 18.3209 13.6848C18.3209 13.6848 18.3222 13.6841 18.3228 13.6835L27.3229 4.65331C27.0094 4.50828 26.6639 4.42188 26.2964 4.42188Z" fill="#64646A"/>
</g>
</g>
<g id="Group_5">
<g id="Group_6">
<path id="Vector_3" d="M1.01906 5.80078C0.856855 6.1288 0.757324 6.49291 0.757324 6.88294V21.6486C0.757324 22.0386 0.856746 22.4027 1.019 22.7307L9.45636 14.266L1.01906 5.80078Z" fill="#64646A"/>
</g>
</g>
<g id="Group_7">
<g id="Group_8">
<path id="Vector_4" d="M28.4956 5.80078L20.0583 14.2661L28.4956 22.7309C28.6578 22.4029 28.7573 22.0388 28.7573 21.6487V6.88305C28.7573 6.49291 28.6578 6.1288 28.4956 5.80078Z" fill="#64646A"/>
</g>
</g>
</g>
<defs>
<clipPath id="clip0_1_61">
<rect width="28" height="28" fill="white" transform="translate(0.757324 0.265625)"/>
</clipPath>
</defs>
</svg>
