<svg width="31" height="31" viewBox="0 0 31 31" fill="none" xmlns="http://www.w3.org/2000/svg">
<g id="instagram">
<path id="Vector" d="M26.9412 10.6467C26.9274 9.70045 26.7524 8.7617 26.4174 7.8767C25.8312 6.36545 24.6374 5.17045 23.1262 4.58545C22.2524 4.2567 21.3287 4.08045 20.3937 4.06045C19.1912 4.0067 18.8099 3.9917 15.7574 3.9917C12.7049 3.9917 12.3137 3.9917 11.1199 4.06045C10.1862 4.08045 9.26241 4.2567 8.38866 4.58545C6.87741 5.17045 5.68241 6.36545 5.09741 7.8767C4.76866 8.75045 4.59116 9.6742 4.57366 10.6079C4.51991 11.8117 4.50366 12.1929 4.50366 15.2454C4.50366 18.2979 4.50366 18.6879 4.57366 19.8829C4.59241 20.8179 4.76866 21.7404 5.09741 22.6167C5.68366 24.1267 6.87741 25.3217 8.38991 25.9067C9.25991 26.2467 10.1837 26.4392 11.1212 26.4692C12.3249 26.5229 12.7062 26.5392 15.7587 26.5392C18.8112 26.5392 19.2024 26.5392 20.3962 26.4692C21.3299 26.4504 22.2537 26.2742 23.1287 25.9454C24.6399 25.3592 25.8337 24.1642 26.4199 22.6542C26.7487 21.7792 26.9249 20.8567 26.9437 19.9204C26.9974 18.7179 27.0137 18.3367 27.0137 15.2829C27.0112 12.2304 27.0112 11.8429 26.9412 10.6467ZM15.7499 21.0179C12.5574 21.0179 9.97116 18.4317 9.97116 15.2392C9.97116 12.0467 12.5574 9.46045 15.7499 9.46045C18.9399 9.46045 21.5287 12.0467 21.5287 15.2392C21.5287 18.4317 18.9399 21.0179 15.7499 21.0179ZM21.7587 10.5942C21.0124 10.5942 20.4112 9.9917 20.4112 9.2467C20.4112 8.5017 21.0124 7.8992 21.7587 7.8992C22.5024 7.8992 23.1049 8.5017 23.1049 9.2467C23.1049 9.9917 22.5024 10.5942 21.7587 10.5942Z" fill="#64646A"/>
<path id="Vector_2" d="M15.7498 18.9933C17.823 18.9933 19.5036 17.3127 19.5036 15.2396C19.5036 13.1665 17.823 11.4858 15.7498 11.4858C13.6767 11.4858 11.9961 13.1665 11.9961 15.2396C11.9961 17.3127 13.6767 18.9933 15.7498 18.9933Z" fill="#64646A"/>
</g>
</svg>
