<svg width="31" height="31" viewBox="0 0 31 31" fill="none" xmlns="http://www.w3.org/2000/svg">
<g id="linkedin">
<path id="Vector" d="M6.98598 9.26199C8.49648 9.26199 9.72098 8.03749 9.72098 6.52699C9.72098 5.01649 8.49648 3.79199 6.98598 3.79199C5.47548 3.79199 4.25098 5.01649 4.25098 6.52699C4.25098 8.03749 5.47548 9.26199 6.98598 9.26199Z" fill="#64646A"/>
<path id="Vector_2" d="M12.3035 11.3345V26.5082H17.0147V19.0045C17.0147 17.0245 17.3872 15.107 19.8422 15.107C22.2635 15.107 22.2935 17.3707 22.2935 19.1295V26.5095H27.0072V18.1882C27.0072 14.1007 26.1272 10.9595 21.3497 10.9595C19.056 10.9595 17.5185 12.2182 16.8897 13.4095H16.826V11.3345H12.3035ZM4.62598 11.3345H9.34473V26.5082H4.62598V11.3345Z" fill="#64646A"/>
</g>
</svg>
