<svg width="31" height="31" viewBox="0 0 31 31" fill="none" xmlns="http://www.w3.org/2000/svg">
<g id="phone">
<path id="Vector" d="M23.4656 18.2401C22.626 18.0595 21.9618 18.4493 21.3736 18.7898C20.7713 19.1406 19.626 20.0697 18.9695 19.832C15.6084 18.4481 12.4472 15.5062 11.0788 12.1316C10.8376 11.4611 11.7624 10.3085 12.1106 9.69909C12.4485 9.10915 12.8303 8.43865 12.6562 7.59274C12.4988 6.83258 10.4636 4.24285 9.74392 3.53468C9.26928 3.06689 8.78305 2.8096 8.28392 2.76801C6.40732 2.68745 4.31147 5.19143 3.9439 5.79045C3.02301 7.06778 3.02817 8.76741 3.95937 10.8283C6.20355 16.3638 14.6914 24.7177 20.2476 27.0462C21.273 27.5257 22.2106 27.7661 23.0529 27.7661C23.877 27.7661 24.6109 27.5361 25.2416 27.0801C25.7175 26.8058 28.3241 24.606 28.2558 22.679C28.2145 22.1877 27.9579 21.6966 27.4961 21.221C26.7931 20.4946 24.2201 18.3987 23.4656 18.2401Z" fill="#64646A"/>
</g>
</svg>
