<svg width="31" height="31" viewBox="0 0 31 31" fill="none" xmlns="http://www.w3.org/2000/svg">
<g id="twitter">
<path id="Vector" d="M25.2986 10.2621C25.3148 10.4808 25.3148 10.6983 25.3148 10.9158C25.3148 17.5721 20.2486 25.2421 10.9898 25.2421C8.13732 25.2421 5.48732 24.4158 3.25732 22.9808C3.66232 23.0271 4.05232 23.0433 4.47357 23.0433C6.82732 23.0433 8.99357 22.2483 10.7248 20.892C8.51107 20.8458 6.65607 19.3958 6.01607 17.4008C6.32732 17.4471 6.63982 17.4783 6.96732 17.4783C7.41857 17.4783 7.87232 17.4158 8.29357 17.3071C5.98482 16.8396 4.25607 14.8133 4.25607 12.3658V12.3033C4.92732 12.6771 5.70607 12.9108 6.53107 12.9421C5.17482 12.0396 4.28607 10.4958 4.28607 8.74955C4.28607 7.81455 4.53482 6.95705 4.97107 6.20955C7.44982 9.2633 11.1761 11.2596 15.3536 11.4783C15.2761 11.1033 15.2286 10.7146 15.2286 10.3246C15.2286 7.54955 17.4736 5.28955 20.2636 5.28955C21.7136 5.28955 23.0223 5.89705 23.9423 6.87955C25.0798 6.6608 26.1698 6.23955 27.1373 5.6633C26.7636 6.83205 25.9673 7.81455 24.9236 8.4383C25.9373 8.3283 26.9198 8.0483 27.8223 7.6583C27.1373 8.6558 26.2811 9.54455 25.2986 10.2621Z" fill="#64646A"/>
</g>
</svg>
